<?xml version="1.0" encoding="UTF-8" standalone="no"?>
<svg
   xmlns:dc="http://purl.org/dc/elements/1.1/"
   xmlns:cc="http://creativecommons.org/ns#"
   xmlns:rdf="http://www.w3.org/1999/02/22-rdf-syntax-ns#"
   xmlns:svg="http://www.w3.org/2000/svg"
   xmlns="http://www.w3.org/2000/svg"
   xmlns:sodipodi="http://sodipodi.sourceforge.net/DTD/sodipodi-0.dtd"
   xmlns:inkscape="http://www.inkscape.org/namespaces/inkscape"
   width="479.26077"
   height="166.60237"
   viewBox="0 0 126.80441 44.080212"
   version="1.1"
   id="svg95"
   inkscape:version="1.0.1 (3bc2e813f5, 2020-09-07)"
   sodipodi:docname="logo.svg">
  <defs
     id="defs89">
    <rect
       x="22.144041"
       y="27.575188"
       width="67.199951"
       height="27.736073"
       id="rect1045" />
    <rect
       x="22.144041"
       y="27.575188"
       width="67.199951"
       height="27.736073"
       id="rect106" />
  </defs>
  <sodipodi:namedview
     id="base"
     pagecolor="#ffffff"
     bordercolor="#666666"
     borderopacity="1.0"
     inkscape:pageopacity="0.0"
     inkscape:pageshadow="2"
     inkscape:zoom="2.8"
     inkscape:cx="273.90042"
     inkscape:cy="89.673429"
     inkscape:document-units="mm"
     inkscape:current-layer="text1039"
     inkscape:document-rotation="0"
     showgrid="false"
     lock-margins="false"
     units="px"
     fit-margin-top="10"
     fit-margin-left="100"
     fit-margin-right="100"
     fit-margin-bottom="10"
     inkscape:window-width="1362"
     inkscape:window-height="724"
     inkscape:window-x="0"
     inkscape:window-y="42"
     inkscape:window-maximized="0" />
  <metadata
     id="metadata92">
    <rdf:RDF>
      <cc:Work
         rdf:about="">
        <dc:format>image/svg+xml</dc:format>
        <dc:type
           rdf:resource="http://purl.org/dc/dcmitype/StillImage" />
        <dc:title></dc:title>
      </cc:Work>
    </rdf:RDF>
  </metadata>
  <g
     inkscape:label="レイヤー 1"
     inkscape:groupmode="layer"
     id="layer1"
     transform="translate(-34.418002,-20.409935)">
    <g
       id="g1029"
       transform="matrix(1.0369674,0,0,0.97701341,39.128219,6.8748908)">
      <path
         style="fill:#ff0000;stroke:#ff0000;stroke-width:1.26969;stroke-linecap:round;stroke-linejoin:miter;stroke-miterlimit:4;stroke-dasharray:none;stroke-opacity:1"
         d="M 48.94069,17.196417 59.83317,31.810806"
         id="path1025" />
      <path
         style="fill:#ff0000;stroke:#ff0000;stroke-width:1.26969;stroke-linecap:round;stroke-linejoin:miter;stroke-miterlimit:4;stroke-dasharray:none;stroke-opacity:1"
         d="M 70.72565,17.196417 59.83317,31.810806"
         id="path1027" />
    </g>
    <g
       id="g1035"
       transform="matrix(1.0369674,0,0,-0.97701341,31.835087,78.025191)">
      <path
         style="fill:#ff0000;stroke:#ff0000;stroke-width:1.26969;stroke-linecap:round;stroke-linejoin:bevel;stroke-miterlimit:0;stroke-dasharray:none;stroke-opacity:1;paint-order:normal"
         d="M 48.94069,17.196417 59.83317,31.810806"
         id="path1031" />
      <path
         style="fill:#ff0000;stroke:#ff0000;stroke-width:1.26969;stroke-linecap:round;stroke-linejoin:bevel;stroke-miterlimit:0;stroke-dasharray:none;stroke-opacity:1;paint-order:normal"
         d="M 70.72565,17.196417 59.83317,31.810806"
         id="path1033" />
    </g>
    <g
       aria-label="四季"
       transform="translate(36.776,1.1442408)"
       id="text1039"
       style="font-size:19.7556px;line-height:1.25;font-family:'源ノ明朝 JP';-inkscape-font-specification:'源ノ明朝 JP';white-space:pre;shape-inside:url(#rect1045)">
      <path
         d="M 25.364694,45.927171 V 33.935522 h 4.049898 c -0.07902,3.536252 -0.31609,6.657637 -3.793075,9.087576 l 0.296334,0.31609 c 4.227698,-2.29165 4.62281,-5.551324 4.780855,-9.403666 h 2.410183 v 7.191038 c 0,0.829736 0.217312,1.165581 1.363137,1.165581 h 1.185336 c 1.97556,0 2.449694,-0.256823 2.449694,-0.750713 0,-0.237067 -0.05927,-0.395112 -0.434623,-0.553157 l -0.05927,-2.64725 h -0.276578 c -0.177801,1.047047 -0.375357,2.291649 -0.49389,2.568228 -0.05927,0.158045 -0.13829,0.197556 -0.276579,0.217311 -0.138289,0.01976 -0.474134,0.01976 -0.889002,0.01976 H 34.76836 c -0.395112,0 -0.434624,-0.07902 -0.434624,-0.335845 v -6.835438 -0.03951 h 4.306721 V 45.927171 Z M 39.173858,32.532874 38.442901,33.382365 H 25.502983 l -1.402647,-0.67169 v 15.567413 h 0.237067 c 0.553157,0 1.027291,-0.31609 1.027291,-0.474135 v -1.303869 h 13.275763 v 1.65947 h 0.177801 c 0.474134,0 1.066802,-0.335845 1.086558,-0.49389 V 34.192345 c 0.395112,-0.07902 0.730957,-0.237067 0.869246,-0.395112 z"
         style="font-size:19.7556px"
         id="path97" />
      <path
         d="m 58.040418,43.339188 h -5.61059 v -0.98778 c 0.434623,-0.07902 0.612423,-0.217312 0.67169,-0.49389 l -0.138289,-0.01976 c 1.126069,-0.395112 2.410183,-0.948269 3.239918,-1.30387 0.414868,-0.01976 0.671691,-0.03951 0.829736,-0.197556 l -1.501426,-1.382892 -0.908758,0.849491 h -8.001018 l 0.177801,0.553157 h 7.40835 c -0.533401,0.454379 -1.224847,0.98778 -1.837271,1.422403 l -1.224847,-0.138289 v 1.698982 h -8.297352 l 0.158045,0.592668 h 8.139307 v 3.062118 c 0,0.276578 -0.09878,0.395112 -0.434623,0.395112 -0.434624,0 -2.60774,-0.158045 -2.60774,-0.158045 v 0.296334 c 0.948269,0.118533 1.461915,0.296334 1.758249,0.49389 0.296334,0.217311 0.414867,0.533401 0.474134,0.948269 1.876782,-0.197556 2.094094,-0.829736 2.094094,-1.916294 v -3.121384 h 7.783706 c 0.276579,0 0.474135,-0.09878 0.513646,-0.31609 -0.651935,-0.612424 -1.738493,-1.48167 -1.738493,-1.48167 z m 2.133605,-7.72444 c 0.276578,0 0.454379,-0.09878 0.513646,-0.31609 -0.651935,-0.592668 -1.718738,-1.402647 -1.718738,-1.402647 l -0.928513,1.16558 H 52.410072 V 32.86872 c 1.97556,-0.158045 3.812831,-0.355601 5.314257,-0.572913 0.513645,0.237067 0.889002,0.237067 1.086558,0.09878 l -1.422404,-1.48167 c -3.042362,0.770469 -8.672708,1.600204 -13.117718,1.936049 l 0.03951,0.395112 c 2.212627,0 4.563544,-0.118534 6.815682,-0.276578 v 2.094093 h -8.218329 l 0.158044,0.553157 h 6.341548 c -1.600204,1.936049 -4.069654,3.753564 -6.874949,4.919144 l 0.177801,0.335846 c 3.476985,-1.066803 6.499592,-2.78554 8.415885,-5.037678 v 3.496741 h 0.197556 c 0.671691,0 1.086558,-0.276579 1.086558,-0.375357 v -3.338696 h 0.434623 c 1.600204,2.311405 4.306721,4.049898 7.092261,4.978411 0.158045,-0.612423 0.592668,-1.047047 1.126069,-1.126069 l 0.01976,-0.237067 c -2.726273,-0.553157 -5.867414,-1.896538 -7.665173,-3.615275 z"
         style="font-size:19.7556px"
         id="path99" />
    </g>
    <g
       aria-label="shiki"
       id="text1043"
       style="font-style:normal;font-variant:normal;font-weight:normal;font-stretch:normal;font-size:19.7556px;line-height:1;font-family:'Linux Biolinum';-inkscape-font-specification:'Linux Biolinum';text-align:end;letter-spacing:0px;word-spacing:0px;text-anchor:end;stroke-width:0.264583">
      <path
         d="m 98.416859,47.297991 0.299035,-0.01929 q 1.022507,1.418004 2.334406,1.42765 0.81028,0 1.31189,-0.434083 0.50161,-0.443729 0.50161,-1.205786 0,-0.67524 -0.48232,-1.003214 -0.48231,-0.327974 -1.51446,-0.59807 -1.109327,-0.299035 -1.736335,-0.829581 -0.627009,-0.540192 -0.627009,-1.601283 0,-1.147909 0.887458,-1.774918 0.887456,-0.636655 2.093246,-0.636655 1.52411,0 2.66237,0.588424 l 0.0386,0.06752 -0.3955,1.45659 -0.27009,0.01929 q -0.37621,-0.434083 -0.55949,-0.617362 -0.17363,-0.192926 -0.62701,-0.453376 -0.45337,-0.270096 -0.92604,-0.270096 -0.65595,0 -1.08039,0.327974 -0.424432,0.318327 -0.424432,0.916397 0,1.109323 1.832792,1.543406 1.22508,0.299035 1.9582,0.887459 0.73312,0.588424 0.73312,1.697747 0,0.453376 -0.15434,0.887459 -0.1447,0.434083 -0.49196,0.868166 -0.33762,0.434083 -1.0418,0.694532 -0.70418,0.250804 -1.66881,0.250804 -1.466237,0 -2.980705,-0.530546 z"
         style="font-style:normal;font-variant:normal;font-weight:normal;font-stretch:normal;font-size:19.7556px;font-family:'Linux Biolinum';-inkscape-font-specification:'Linux Biolinum';text-align:end;text-anchor:end;stroke-width:0.264583"
         id="path86" />
      <path
         d="m 108.61299,42.339799 0.0386,0.05788 q 1.52412,-1.774917 3.42443,-1.774917 1.30225,0 1.87138,0.771703 0.57878,0.771703 0.57878,2.353695 0,0.318327 -0.0289,1.003214 -0.0193,0.67524 -0.0193,0.983921 0,2.295817 0.18328,3.559481 l -0.0386,0.05788 q -0.35692,-0.05788 -0.9357,-0.05788 -0.56913,0 -0.92604,0.05788 l -0.0386,-0.05788 q 0.17363,-1.205786 0.18328,-3.559481 v -1.929257 q 0,-1.167201 -0.31833,-1.581992 -0.31833,-0.41479 -1.10933,-0.41479 -0.58842,0 -1.37941,0.395498 -0.791,0.395498 -1.48553,1.225078 v 2.305463 q 0,2.189708 0.18328,3.559481 l -0.0482,0.05788 q -0.35691,-0.05788 -0.92604,-0.05788 -0.56913,0 -0.92604,0.05788 l -0.0386,-0.05788 q 0.17364,-1.282956 0.17364,-3.559481 v -5.942114 q 0,-2.845655 -0.17364,-3.829576 l 0.0386,-0.06752 q 0.88746,-0.05788 1.71704,-0.395498 0.17363,0 0.18328,0.202572 -0.17364,2.276524 -0.18328,3.694529 z"
         style="font-style:normal;font-variant:normal;font-weight:normal;font-stretch:normal;font-size:19.7556px;font-family:'Linux Biolinum';-inkscape-font-specification:'Linux Biolinum';text-align:end;text-anchor:end;stroke-width:0.264583"
         id="path88" />
      <path
         d="m 117.97953,38.201541 q -0.29903,-0.308682 -0.29903,-0.704179 0,-0.395498 0.29903,-0.694533 0.30868,-0.308681 0.70418,-0.308681 0.3955,0 0.70418,0.308681 0.30868,0.299035 0.30868,0.694533 0,0.395497 -0.30868,0.704179 -0.30868,0.308681 -0.70418,0.308681 -0.3955,0 -0.70418,-0.308681 z m -0.10611,6.453367 q 0,-2.623791 -0.17363,-3.839223 l 0.0386,-0.05788 q 0.84887,0.05788 1.71704,-0.01929 0.11575,0 0.14469,0.02894 0.0386,0.02894 0.0386,0.173633 -0.17364,1.659162 -0.18328,3.395494 v 1.398711 q 0,2.151123 0.18328,3.559481 l -0.0482,0.05788 q -0.35691,-0.05788 -0.92604,-0.05788 -0.56913,0 -0.92604,0.05788 l -0.0386,-0.05788 q 0.17363,-1.340834 0.17363,-3.559481 z"
         style="font-style:normal;font-variant:normal;font-weight:normal;font-stretch:normal;font-size:19.7556px;font-family:'Linux Biolinum';-inkscape-font-specification:'Linux Biolinum';text-align:end;text-anchor:end;stroke-width:0.264583"
         id="path90" />
      <path
         d="m 123.00525,45.339795 v -5.565909 q 0,-2.826363 -0.17363,-3.810284 l 0.0386,-0.06752 q 0.88746,-0.05788 1.71704,-0.395498 0.17364,0 0.18328,0.202572 -0.17363,2.39228 -0.18328,3.713821 v 5.131826 q 0.54019,-0.04823 0.86817,-0.289389 0.60771,-0.472668 1.55305,-1.495175 0.95498,-1.032153 1.57235,-1.94855 1.62057,0 1.99678,-0.05788 l 0.0386,0.05788 q -1.9389,1.639869 -3.99356,3.781345 0.84887,1.003214 1.57234,1.784564 0.72348,0.781349 1.55306,1.601284 0.82958,0.819934 1.28295,1.311895 l -0.0386,0.05788 q -0.29904,-0.05788 -1.1865,-0.05788 -0.81028,0 -1.30224,0.05788 -0.86817,-1.244371 -1.16721,-1.668808 -0.29903,-0.424437 -0.81028,-1.041799 -0.51126,-0.627009 -1.12862,-1.282957 -0.22186,-0.192926 -0.81029,-0.212218 v 0.192926 q 0,2.643083 0.18328,3.954978 l -0.0482,0.05788 q -0.35691,-0.05788 -0.92604,-0.05788 -0.56913,0 -0.92605,0.05788 l -0.0386,-0.05788 q 0.17363,-1.263664 0.17363,-3.954978 z"
         style="font-style:normal;font-variant:normal;font-weight:normal;font-stretch:normal;font-size:19.7556px;font-family:'Linux Biolinum';-inkscape-font-specification:'Linux Biolinum';text-align:end;text-anchor:end;stroke-width:0.264583"
         id="path92" />
      <path
         d="m 133.04704,38.201541 q -0.29904,-0.308682 -0.29904,-0.704179 0,-0.395498 0.29904,-0.694533 0.30868,-0.308681 0.70418,-0.308681 0.3955,0 0.70418,0.308681 0.30868,0.299035 0.30868,0.694533 0,0.395497 -0.30868,0.704179 -0.30868,0.308681 -0.70418,0.308681 -0.3955,0 -0.70418,-0.308681 z m -0.10611,6.453367 q 0,-2.623791 -0.17363,-3.839223 l 0.0386,-0.05788 q 0.84887,0.05788 1.71704,-0.01929 0.11576,0 0.14469,0.02894 0.0386,0.02894 0.0386,0.173633 -0.17363,1.659162 -0.18328,3.395494 v 1.398711 q 0,2.151123 0.18328,3.559481 l -0.0482,0.05788 q -0.35691,-0.05788 -0.92605,-0.05788 -0.56913,0 -0.92604,0.05788 l -0.0386,-0.05788 q 0.17363,-1.340834 0.17363,-3.559481 z"
         style="font-style:normal;font-variant:normal;font-weight:normal;font-stretch:normal;font-size:19.7556px;font-family:'Linux Biolinum';-inkscape-font-specification:'Linux Biolinum';text-align:end;text-anchor:end;stroke-width:0.264583"
         id="path94" />
    </g>
  </g>
</svg>
